HIERARCHY
ROOT RootJoint
{
    OFFSET   0.000000   0.000000   0.000000
    CHANNELS 6 Xposition Yposition Zposition Xrotation Yrotation Zrotation
    JOINT pelvis_lowerback
    {
        OFFSET   0.000000   0.093605   0.000000
        CHANNELS 3 Xrotation Yrotation Zrotation
        JOINT lowerback_torso
        {
            OFFSET   0.000000   0.100000   0.000000
            CHANNELS 3 Xrotation Yrotation Zrotation
            JOINT torso_head
            {
                OFFSET   0.000000   0.282350   0.000000
                CHANNELS 3 Xrotation Yrotation Zrotation
                End Site
                {
                    OFFSET   0.000000   0.192650   0.000000
                }
            }
            JOINT rTorso_Clavicle
            {
                OFFSET  -0.001000   0.157500   0.000000
                CHANNELS 3 Xrotation Yrotation Zrotation
                JOINT rShoulder
                {
                    OFFSET  -0.117647   0.000000   0.000000
                    CHANNELS 3 Xrotation Yrotation Zrotation
                    JOINT rElbow
                    {
                        OFFSET  -0.245000   0.000000   0.000000
                        CHANNELS 3 Xrotation Yrotation Zrotation
                        JOINT rWrist
                        {
                            OFFSET  -0.240000   0.000000   0.000000
                            CHANNELS 3 Xrotation Yrotation Zrotation
                            End Site
                            {
                                OFFSET  -0.116353  -0.002500   0.000000
                            }
                        }
                    }
                }
            }
            JOINT lTorso_Clavicle
            {
                OFFSET   0.001000   0.157500   0.000000
                CHANNELS 3 Xrotation Yrotation Zrotation
                JOINT lShoulder
                {
                    OFFSET   0.117647   0.000000   0.000000
                    CHANNELS 3 Xrotation Yrotation Zrotation
                    JOINT lElbow
                    {
                        OFFSET   0.245000   0.000000   0.000000
                        CHANNELS 3 Xrotation Yrotation Zrotation
                        JOINT lWrist
                        {
                            OFFSET   0.240000   0.000000   0.000000
                            CHANNELS 3 Xrotation Yrotation Zrotation
                            End Site
                            {
                                OFFSET   0.116353  -0.002500   0.000000
                            }
                        }
                    }
                }
            }
        }
    }
    JOINT rHip
    {
        OFFSET  -0.100000  -0.051395   0.000000
        CHANNELS 3 Xrotation Yrotation Zrotation
        JOINT rKnee
        {
            OFFSET   0.000000  -0.410000   0.000000
            CHANNELS 3 Xrotation Yrotation Zrotation
            JOINT rAnkle
            {
                OFFSET   0.000000  -0.390000   0.000000
                CHANNELS 3 Xrotation Yrotation Zrotation
                JOINT rToeJoint
                {
                    OFFSET   0.000000  -0.050000   0.130000
                    CHANNELS 3 Xrotation Yrotation Zrotation
                    End Site
                    {
                        OFFSET  -0.010000   0.002000   0.060000
                    }
                }
            }
        }
    }
    JOINT lHip
    {
        OFFSET   0.100000  -0.051395   0.000000
        CHANNELS 3 Xrotation Yrotation Zrotation
        JOINT lKnee
        {
            OFFSET   0.000000  -0.410000   0.000000
            CHANNELS 3 Xrotation Yrotation Zrotation
            JOINT lAnkle
            {
                OFFSET   0.000000  -0.390000   0.000000
                CHANNELS 3 Xrotation Yrotation Zrotation
                JOINT lToeJoint
                {
                    OFFSET   0.000000  -0.050000   0.130000
                    CHANNELS 3 Xrotation Yrotation Zrotation
                    End Site
                    {
                        OFFSET   0.010000   0.002000   0.060000
                    }
                }
            }
        }
    }
}
MOTION
Frames: 15
Frame Time:   0.008333
 -2.376719   0.925631   3.975860   0.000000   0.000000   0.000000   0.000000   0.000000   0.000000   0.000000   0.000000   0.000000   0.000000   0.000000   0.000000   0.000000   0.000000   0.000000   0.000000   0.000000   0.000000   0.000000   0.000000   0.000000   0.000000   0.000000   0.000000   0.000000   0.000000   0.000000   0.000000   0.000000   0.000000   0.000000   0.000000   0.000000   0.000000   0.000000   0.000000   0.000000   0.000000   0.000000   0.000000   0.000000   0.000000   0.000000   0.000000   0.000000   0.000000   0.000000   0.000000   0.000000   0.000000   0.000000   0.000000   0.000000   0.000000   0.000000   0.000000   0.000000   0.000000   0.000000   0.000000
 -2.376454   0.926374   3.976556  -0.900100   0.088722   0.073072   0.861817   0.037285  -0.026932   0.222245  -0.141015  -0.024368  -0.115280   0.148864   0.095426   0.054745  -0.247116   0.507571   0.533291   0.241838   2.017108   0.013608   0.611154  -0.004177   0.361603  -0.326849  -2.882428   0.113108   0.209469  -0.702308   0.590925  -0.163134  -1.932457   0.016472  -0.719707   0.005665   0.350179   0.269857   3.052154   0.771643   0.083373  -0.231803   1.083830   0.001530   0.001621  -1.310882  -0.294065  -0.026039  -0.160011  -0.000256   0.000166   0.777942  -0.104433   0.015467   0.972301  -0.000742  -0.000118  -1.058701   0.055865   0.036810   0.291680  -0.000315   0.000104
 -2.376122   0.927616   3.977632  -1.847523   0.211705   0.159901   1.631321   0.058588  -0.044860   0.492073  -0.297244  -0.053431  -0.191731   0.292655   0.198725   0.114670  -0.465576   1.778319   1.044434   0.525497   4.649434   0.031555   1.208865  -0.006847   0.746016  -0.463683  -4.993436   0.229457   0.367912  -2.209193   1.158893  -0.387964  -4.516202   0.038378  -1.425919   0.009414   0.732318   0.306428   5.309059   1.619217   0.154073  -0.584632   2.296314   0.004186   0.003262  -2.534574  -0.572314  -0.058160  -0.364162  -0.000740   0.000269   1.626932  -0.198128   0.116403   2.061899  -0.002326   0.000279  -2.045924   0.108638   0.072114   0.517416  -0.000681   0.000253
 -2.375786   0.928893   3.978951  -2.742673   0.343023   0.250726   2.293282   0.069467  -0.061658   0.715059  -0.454576  -0.089154  -0.263721   0.427063   0.302086   0.175529  -0.658457   3.514237   1.529301   0.838439   7.689059   0.049026   1.771707  -0.008124   1.117892  -0.530854  -6.207169   0.341197   0.489871  -4.205398   1.690756  -0.650754  -7.473143   0.059682  -2.093774   0.011323   1.105957   0.251179   6.602513   2.457516   0.209169  -1.019331   3.476770   0.007142   0.004321  -3.674482  -0.832835  -0.094381  -0.551386  -0.001227   0.000314   2.465919  -0.276213   0.303242   3.121962  -0.004314   0.000926  -2.965652   0.158867   0.106441   0.722119  -0.001084   0.000403
 -2.375501   0.929857   3.980416  -3.574444   0.469993   0.343910   2.866238   0.074535  -0.087487   0.887490  -0.607678  -0.141839  -0.338208   0.552391   0.404593   0.239897  -0.836808   5.514251   1.989112   1.176165  11.006144   0.063828   2.297377  -0.008502   1.472797  -0.572554  -6.746915   0.450606   0.592409  -6.500358   2.171933  -0.931158 -10.551275   0.077400  -2.720105   0.011925   1.464677   0.157700   7.130296   3.266425   0.249703  -1.512448   4.596137   0.009930   0.004756  -4.738540  -1.076438  -0.133598  -0.728261  -0.001679   0.000339   3.277469  -0.340493   0.565889   4.127253  -0.006402   0.001624  -3.824239   0.206530   0.139872   0.903902  -0.001462   0.000521
 -2.375290   0.930255   3.981957  -4.347227   0.587476   0.437431   3.368292   0.076618  -0.126499   1.021260  -0.753798  -0.211778  -0.414303   0.669136   0.502171   0.310017  -1.007679   7.638826   2.424568   1.535889  14.508104   0.075142   2.786139  -0.008366   1.809565  -0.608301  -6.831790   0.560011   0.686412  -8.935653   2.606254  -1.219241 -13.636380   0.090509  -3.304491   0.011746   1.805096   0.053691   7.145801   4.039652   0.277294  -2.046380   5.650817   0.012325   0.004691  -5.732240  -1.303950  -0.174883  -0.895658  -0.002072   0.000356   4.056268  -0.392918   0.892679   5.075428  -0.008388   0.002286  -4.625996   0.251600   0.172404   1.065201  -0.001782   0.000601
 -2.375115   0.929889   3.983516  -5.067262   0.693854   0.526304   3.814377   0.077666  -0.170521   1.128445  -0.891111  -0.279737  -0.490329   0.777865   0.587991   0.388429  -1.171540   9.852006   2.812537   1.896816  17.959724   0.082645   3.241120  -0.007875   2.130142  -0.636254  -6.537125   0.671171   0.775432 -11.415039   2.997719  -1.509898 -16.663678   0.099004  -3.848761   0.011156   2.126761  -0.050098   6.826968   4.774502   0.293670  -2.608937   6.642270   0.014276   0.004269  -6.660305  -1.516183  -0.217422  -1.053426  -0.002396   0.000370   4.799913  -0.435139   1.270363   5.968213  -0.010106   0.002869  -5.374708   0.294125   0.204053   1.208551  -0.002024   0.000646
 -2.374991   0.928003   3.984200  -5.276079   0.701606   0.543816   3.928986   0.102209  -0.141226   1.117483  -0.991447  -0.338877  -0.721831   0.761254   0.553612   0.560097  -1.189398  11.498828   3.233979   2.214746  21.046823   0.085699   3.710205  -0.008362   2.325650  -0.565722  -5.087205   0.849614   0.874062 -13.039574   3.269652  -1.716974 -19.730694   0.099859  -4.345910   0.010505   2.353948  -0.315443   5.456748   4.800427   0.079061  -3.069678   7.662999   0.015206   0.000807  -7.240851  -1.759514  -0.058906  -0.925149  -0.001573  -0.000204   5.022875  -0.398865   1.676325   6.280696  -0.009195   0.002593  -5.916890   0.393278   0.209024   1.434252  -0.002443   0.000842
 -2.374889   0.924853   3.984448  -5.423886   0.701049   0.547009   4.099855   0.128026  -0.104147   1.105951  -1.072297  -0.384736  -0.956818   0.738881   0.512645   0.705276  -1.166466  12.818383   3.604989   2.550519  23.777244   0.084523   4.154652  -0.008899   2.516707  -0.462708  -3.773590   1.009874   0.955428 -14.318152   3.512769  -1.919641 -22.441292   0.096259  -4.807878   0.010086   2.561875  -0.571488   4.202261   4.746628  -0.135994  -3.478884   8.576164   0.015139  -0.001813  -7.778845  -1.990950   0.086518  -0.776457  -0.000902  -0.000753   5.127152  -0.366546   2.056095   6.446060  -0.007891   0.002210  -6.428410   0.486113   0.214979   1.638931  -0.002630   0.000936
 -2.374793   0.920585   3.984434  -5.553914   0.701772   0.545194   4.313246   0.160377  -0.064861   1.124930  -1.137446  -0.420421  -1.170386   0.717463   0.473351   0.825528  -1.120159  13.899072   3.929441   2.893510  26.216375   0.080847   4.575603  -0.009369   2.702153  -0.338065  -2.726737   1.149605   1.019579 -15.349813   3.727616  -2.122015 -24.855149   0.090302  -5.240756   0.009718   2.758258  -0.818550   3.219883   4.677120  -0.336415  -3.847729   9.408863   0.014513  -0.003590  -8.281292  -2.208162   0.220034  -0.638985  -0.000427  -0.001119   5.158989  -0.338107   2.400920   6.556375  -0.006632   0.001853  -6.907815   0.572288   0.221334   1.824112  -0.002650   0.000973
 -2.374697   0.915302   3.984266  -5.673663   0.706276   0.540734   4.551813   0.199787  -0.023825   1.169706  -1.188709  -0.447722  -1.362018   0.697583   0.436413   0.925953  -1.062102  14.798312   4.213848   3.233524  28.413071   0.075728   4.972410  -0.009681   2.880759  -0.202197  -1.901242   1.273159   1.074605 -16.195853   3.918342  -2.318495 -27.023456   0.083151  -5.645572   0.009283   2.944351  -1.055339   2.465594   4.608007  -0.522719  -4.180293  10.177216   0.013574  -0.004718  -8.750246  -2.411691   0.342764  -0.512151  -0.000100  -0.001342   5.139351  -0.312958   2.710212   6.634815  -0.005506   0.001541  -7.356047   0.652280   0.227869   1.994101  -0.002563   0.000976
 -2.374575   0.915227   3.984689  -6.033266   0.705917   0.743517   4.898861   0.241938  -0.144088   1.324127  -1.231370  -0.541151  -1.522219   0.679124   0.396738   1.018967  -0.997390  15.931183   4.464968   3.563258  30.528033   0.071042   5.333846  -0.009632   3.051153  -0.123505  -1.305279   1.388584   1.120959 -17.225947   4.089684  -2.502980 -29.072485   0.076601  -6.009617   0.008579   3.119066  -1.200061   1.964938   4.595655  -0.526811  -4.430619  11.061697   0.011148  -0.004136  -9.272355  -2.395212   0.652253  -0.482198  -0.000149  -0.001074   5.209634  -0.341882   2.509015   7.283201  -0.004371   0.001322  -7.440559   0.634067   0.029835   1.538986  -0.002840   0.000833
 -2.374570   0.915201   3.985281  -6.275638   0.723316   0.932313   5.124332   0.287175  -0.228471   1.425885  -1.265599  -0.630264  -1.669367   0.662029   0.352474   1.122202  -0.961158  16.819143   4.697121   3.869068  32.500588   0.065640   5.675668  -0.009322   3.213256  -0.015751  -0.563370   1.517385   1.194149 -18.032823   4.255185  -2.665725 -30.992423   0.069635  -6.352914   0.007660   3.284988  -1.366245   1.323537   4.562878  -0.647819  -4.657563  11.745900   0.008983  -0.004106  -9.701778  -2.542442   0.740218  -0.434114  -0.000141  -0.000967   5.281630  -0.286779   2.329378   7.719656  -0.003454   0.001469  -7.639276   0.715435   0.009782   1.758622  -0.002231   0.001024
 -2.374833   0.915269   3.985795  -6.327273   0.736257   1.065252   5.252323   0.347710  -0.372402   1.402570  -1.273190  -0.597265  -1.818123   0.612490   0.327257   1.144944  -1.025703  17.328039   4.835634   4.122998  33.983069   0.058263   5.994784  -0.008317   3.311781   0.153041   0.779169   1.671920   1.314630 -18.437362   4.271786  -2.788525 -32.568335   0.063995  -6.826304   0.006326   3.405241  -1.493497   0.155714   4.455269  -0.778626  -4.802259  12.157107   0.007112  -0.003772 -10.031728  -2.632841   0.743909  -0.212857  -0.000112  -0.001180   5.242562  -0.256127   2.217184   7.973795  -0.002780   0.001327  -7.797058   0.775745   0.014892   1.919230  -0.001810   0.000995
 -2.375275   0.915390   3.986201  -6.301368   0.736714   1.162074   5.365529   0.415346  -0.507857   1.341192  -1.270482  -0.555448  -1.965505   0.565890   0.309956   1.141660  -1.073088  17.540977   4.952295   4.361825  35.176373   0.050447   6.295499  -0.007437   3.397511   0.323357   1.845773   1.797559   1.420025 -18.562595   4.277253  -2.902003 -33.861176   0.056891  -7.274600   0.005196   3.514413  -1.654948  -0.762047   4.317033  -0.902640  -4.899119  12.452387   0.005598  -0.003367 -10.361779  -2.717991   0.747461  -0.004414  -0.000123  -0.001327   5.173075  -0.234908   2.148872   8.126601  -0.002253   0.001115  -7.979046   0.829130   0.027067   2.067711  -0.001493   0.000913
